<svg width="32" height="22" viewBox="0 0 32 22" fill="none" xmlns="http://www.w3.org/2000/svg"><path d="M0.649 0.061 C 0.552 0.089,0.366 0.218,0.236 0.348 L 0.000 0.584 0.000 1.446 L 0.000 2.307 0.228 2.535 C 0.665 2.972,-0.831 2.936,16.242 2.920 L 31.440 2.907 31.720 2.752 L 32.000 2.596 32.000 1.436 L 32.000 0.276 31.723 0.138 L 31.446 0.000 16.136 0.005 C 6.556 0.008,0.760 0.029,0.649 0.061 M0.734 9.333 C 0.487 9.408,0.224 9.597,0.109 9.782 C 0.012 9.940,0.000 10.046,0.000 10.753 C 0.000 11.443,0.014 11.569,0.104 11.716 C 0.253 11.960,0.609 12.148,1.042 12.211 C 1.552 12.285,30.660 12.285,31.169 12.211 C 31.372 12.182,31.636 12.104,31.756 12.038 L 31.973 11.918 31.973 10.747 L 31.973 9.575 31.733 9.441 L 31.493 9.307 16.187 9.298 C 7.768 9.293,0.814 9.309,0.734 9.333 M0.838 18.618 C 0.543 18.688,0.357 18.797,0.168 19.012 L -0.000 19.204 0.000 20.062 L 0.000 20.921 0.228 21.149 C 0.665 21.585,-0.831 21.549,16.242 21.534 C 30.537 21.521,31.451 21.515,31.627 21.428 C 32.021 21.232,32.000 21.311,32.000 20.038 L 32.000 18.888 31.693 18.737 L 31.387 18.587 16.213 18.579 C 7.449 18.574,0.955 18.590,0.838 18.618 " stroke="none" fill-rule="evenodd" fill="black"></path></svg>